<svg xmlns="http://www.w3.org/2000/svg" width="40.982" height="41.121" viewBox="0 0 40.982 41.121">
  <path id="path0" d="M133.1,13.276a20.618,20.618,0,0,0-17.958,27.579l.308.846H130.3l.588-.148c2.316-.584,3.424-2.1,3.424-4.679,0-2.649-1.174-4.18-3.636-4.74-.193-.044-1.408-.086-3.17-.11l-2.857-.039-.258-.171a1.289,1.289,0,0,1-.189-2.036c.416-.406.3-.395,4.006-.395h3.385l2.081-1.67c1.144-.919,2.123-1.71,2.175-1.758.152-.142-11.331-.087-11.919.057a4.484,4.484,0,0,0-3.607,4.969,4.539,4.539,0,0,0,3.772,4.426c.189.043,1.434.086,3.146.11,2.744.039,2.837.044,3.009.171a1.491,1.491,0,0,1-.13,2.456c-.317.172-11.783.206-11.874.035a16.679,16.679,0,1,1,2.3,5.072l-.439-.643h-2.1c-1.153,0-2.1.015-2.1.033a17.6,17.6,0,0,0,1.46,2.6A20.506,20.506,0,1,0,133.1,13.276m2.7,14.341-2.149,1.736,5.221.031c5.794.035,5.41,0,5.787.452a1.28,1.28,0,0,1-.021,1.763c-.369.388-.332.383-2.9.424-3,.049-3.69.208-4.794,1.1-1.316,1.067-1.492,1.721-1.522,5.645l-.023,2.962h3.518V39.147c0-3.832-.21-3.59,3.2-3.637,2.523-.035,2.839-.076,3.735-.482,3.737-1.694,3.459-7.546-.419-8.826-.914-.3-1.3-.329-4.526-.325l-2.957,0-2.149,1.735" transform="translate(-113.892 -13.232)" fill="#fff" fill-rule="evenodd"/>
</svg>
