<svg xmlns="http://www.w3.org/2000/svg" width="679.998" height="477" viewBox="0 0 679.998 477">
  <path id="Intersection_19" data-name="Intersection 19" d="M-3484.388,6095.667a297.24,297.24,0,0,0,36.915-31.376c130.654-130.65,107.791-344.279-36.8-445.624h96.819a356.9,356.9,0,0,1,59.45,91.154v295.208a360.5,360.5,0,0,1-59.136,90.639Zm-432.707,0a357.849,357.849,0,0,1-30.491-39.6c-10.281-15.472-25.37-42.336-25.37-45.167,0-.313,16.393-.569,36.427-.569h36.427l7.619,11.162a295.742,295.742,0,0,0,72.329,74.179Zm313.227-100.585h-30.558l.395-51.454c.519-68.165,3.578-79.519,26.447-98.057,19.176-15.543,31.215-18.314,83.278-19.158,44.542-.724,43.9-.63,50.306-7.373,8.254-8.689,8.4-21.1.365-30.626-6.552-7.773.114-7.254-100.529-7.854l-90.691-.544,37.336-30.152,37.332-30.146,51.374-.068c56.064-.077,62.758.4,78.627,5.638,67.373,22.234,72.2,123.885,7.287,153.32-15.565,7.056-21.047,7.767-64.875,8.367-59.168.817-55.476-3.383-55.512,63.19l-.02,44.919Zm-248.151-.544H-3981l-5.35-14.7c-47.538-130.637-13.549-267.264,70.241-361.167h96.663c-73.108,51.728-123.021,137.185-123.021,239.6,0,24.534,5.651,66.992,10,75.12,1.584,2.961,200.759,2.367,206.266-.613,15.484-8.384,16.73-31.933,2.263-42.673-2.977-2.21-4.6-2.3-52.268-2.978-29.741-.419-51.354-1.179-54.643-1.918-39.643-8.895-63.441-36.812-65.532-76.88-2.336-44.721,20.365-76,62.653-86.322,10.227-2.5,209.7-3.452,207.057-.99-.9.833-17.9,14.573-37.777,30.533l-36.146,29.014h-58.795c-64.411,0-62.36-.2-69.591,6.854-10.743,10.494-9.2,27.1,3.281,35.363l4.484,2.973,49.632.678c30.614.418,51.714,1.15,55.073,1.914,42.759,9.724,63.157,36.324,63.157,82.344,0,44.827-19.257,71.14-59.486,81.277l-10.206,2.575Z" transform="translate(4007.999 -5618.667)" opacity="0.05"/>
</svg>
