<svg xmlns="http://www.w3.org/2000/svg" width="225.183" height="59.049" viewBox="0 0 225.183 59.049">
  <g id="Group_11336" data-name="Group 11336" transform="translate(-5238.611 5974.448)">
    <path id="path0" d="M41.04,215.47c-4.924.571-8.018,3.489-8.02,7.563,0,3.638,2.489,5.972,8.148,7.638,6.15,1.81,7.742,2.785,7.742,4.745,0,4.184-8.382,4.883-13.362,1.114a6.254,6.254,0,0,0-.912-.621,41.465,41.465,0,0,0-2.952,3.2,15.073,15.073,0,0,0,3.543,2.58c8.542,4.467,18.917.437,18.183-7.064-.38-3.889-2.828-5.849-10.02-8.023-4.619-1.4-5.823-2.166-5.814-3.714.021-3.613,7.462-4.075,11.2-.694l.754.682.707-.618c.389-.34,1.123-1.041,1.631-1.558l.924-.941-.872-.836a13.634,13.634,0,0,0-10.88-3.447m71.94,13.97v13.738h4.436v-4.189c0-2.3.041-4.188.092-4.186s1.645,1.885,3.542,4.184l3.45,4.181,2.8,0c1.542,0,2.8-.02,2.8-.051s-1.83-2.259-4.066-4.951c-4.023-4.843-4.064-4.9-3.839-5.15.772-.865,7.412-8.811,7.412-8.87a27.868,27.868,0,0,0-2.8-.069l-2.8,0-3.265,3.9-3.265,3.9-.032-8.092-.032-8.092H112.98V229.44m19.9-13.592c-.034.089-.047,6.261-.03,13.715l.032,13.553,2.248.034,2.249.034v-8.611l4.22-.05c4.665-.055,4.94-.092,6.561-.891,3.18-1.566,4.8-4.437,4.8-8.5,0-4.695-2.252-7.9-6.42-9.132-.967-.286-13.556-.422-13.66-.148m-74.5,5.273-.039,2.092-.4.4c-.4.4-.423.4-1.694.444l-1.291.042v4.536h3.428l.052,5.082c.055,5.375.084,5.67.7,7.061,1.02,2.306,4.074,3.211,8.234,2.442l.4-.074v-4.314l-.278.084a10.049,10.049,0,0,1-3.442.031c-.98-.411-1.018-.619-1.062-5.785l-.038-4.528h4.819V224.08H62.957v-5.052H58.415l-.039,2.093m87.524-.471c3.65,1.711,3.6,7.506-.084,8.985-.716.288-.853.3-4.589.335l-3.85.038v-9.762l3.912.039,3.912.039.7.328m-67.787,3.173c-4.938.7-8.333,5.014-8.1,10.29C70.369,242,78.8,246.3,84.488,241.483l.77-.652v2.224h4.436V224.08H85.258v2.362l-.745-.674a8.1,8.1,0,0,0-6.4-1.944m23.353.016a9.866,9.866,0,0,0-5.63,16.669c3.672,3.792,10.311,3.939,13.786.306l.4-.416-1.592-1.589-1.592-1.588-.516.466a5.354,5.354,0,1,1-.191-8.32l.787.6,1.555-1.559,1.556-1.559-.525-.5a9.954,9.954,0,0,0-8.037-2.5m63.928-.006a7.36,7.36,0,0,0-3.858,1.8l-.625.562v-2.123l-2.249.034-2.249.034v18.974l2.244.034,2.244.034.035-5.763.035-5.763.357-.773a4.988,4.988,0,0,1,4.294-2.833l.955-.061v-4.281l-.277.016c-.153.008-.561.057-.907.108m10.61.006c-8.532,1.334-11.425,12.323-4.62,17.55A9.863,9.863,0,1,0,176,223.84m-94.55,4.68a5.281,5.281,0,0,1,2.2,8.795c-4.184,4.358-11.294-.625-8.625-6.046a5.367,5.367,0,0,1,6.421-2.749m97.939.1a5.358,5.358,0,0,1,1.2,9.338,5.3,5.3,0,0,1-7.031-.687c-3.825-4.09.621-10.684,5.834-8.652" transform="translate(5276.501 -6174.386)" fill="#990076" fill-rule="evenodd"/>
    <path id="path0-2" data-name="path0" d="M141.47,13.294a29.607,29.607,0,0,0-25.788,39.6l.442,1.215h21.323l.844-.213c3.325-.838,4.917-3.013,4.917-6.719,0-3.8-1.686-6-5.221-6.807-.278-.063-2.022-.124-4.553-.158l-4.1-.056-.371-.246a1.851,1.851,0,0,1-.271-2.923c.6-.584.428-.567,5.753-.567h4.86l2.988-2.4c1.643-1.319,3.049-2.455,3.123-2.524.219-.2-16.271-.125-17.116.082-3.5.853-5.372,3.439-5.179,7.136a6.518,6.518,0,0,0,5.417,6.355c.272.061,2.059.124,4.517.158,3.94.056,4.074.063,4.321.246a2.141,2.141,0,0,1-.187,3.527c-.455.246-16.92.3-17.05.051a23.951,23.951,0,1,1,3.3,7.283l-.63-.923H119.8c-1.656,0-3.011.021-3.011.047a25.274,25.274,0,0,0,2.1,3.734,29.447,29.447,0,1,0,22.583-45.9m3.874,20.593-3.086,2.492,7.5.045c8.319.05,7.768.007,8.31.649a1.838,1.838,0,0,1-.03,2.532c-.529.557-.476.55-4.158.609-4.3.07-5.3.3-6.884,1.584-1.89,1.532-2.143,2.471-2.186,8.106l-.033,4.253h5.052l0-3.713c0-5.5-.3-5.156,4.589-5.223,3.623-.05,4.076-.108,5.363-.692,5.366-2.433,4.967-10.836-.6-12.674-1.312-.433-1.865-.472-6.5-.466l-4.247.006-3.086,2.492" transform="translate(5124.719 -5987.682)" fill="#990076" fill-rule="evenodd"/>
  </g>
</svg>
