<svg xmlns="http://www.w3.org/2000/svg" width="292.617" height="55.332" viewBox="0 0 292.617 55.332">
  <g id="logo1" transform="translate(0.125 0.125)">
    <path id="Path_16070" data-name="Path 16070" d="M151.415,21.892c-1.594-1.063-3.365-1.771-4.959-2.657a15.43,15.43,0,0,1-3.188-1.948,3.179,3.179,0,0,1,.354-4.959c2.3-1.594,6.2-.708,6.73,2.48a.173.173,0,0,0,.177.177h3.542c.177,0,.177,0,.177-.177a6.7,6.7,0,0,0-2.657-5.136A8.464,8.464,0,0,0,146.633,7.9c-9.387,0-10.273,9.918-5.136,12.929.531.354,5.491,2.834,7.262,3.9a3.611,3.611,0,0,1,1.594,4.6,4.438,4.438,0,0,1-4.251,2.3,4.522,4.522,0,0,1-4.074-2.834,2.633,2.633,0,0,1-.177-1.063.173.173,0,0,0-.177-.177h-3.9a.173.173,0,0,0-.177.177c0,2.834.708,4.251,2.657,5.668a8.818,8.818,0,0,0,5.668,1.948c5.313,0,7.97-3.011,8.5-6.022A6.918,6.918,0,0,0,151.415,21.892Z" transform="translate(105.93 5.915)" fill="#161616"/>
    <path id="Path_16071" data-name="Path 16071" d="M58.371,8.277H54.652a.173.173,0,0,0-.177.177L51.287,18.9c0,.177-.177.177-.354,0L47.745,8.454a.173.173,0,0,0-.177-.177h-5.49a.173.173,0,0,0-.177.177V35.021a.173.173,0,0,0,.177.177h3.9a.173.173,0,0,0,.177-.177V14.653c0-.177.177-.177.354,0L49.693,25.1l.177.708a.173.173,0,0,0,.177.177h3.011a.173.173,0,0,0,.177-.177l.177-.708L56.6,14.653c0-.177.354-.177.354,0V34.844a.173.173,0,0,0,.177.177h3.9a.173.173,0,0,0,.177-.177V8.277a.173.173,0,0,0-.177-.177H58.371Z" transform="translate(32.133 6.069)" fill="#161616"/>
    <path id="Path_16072" data-name="Path 16072" d="M117.829,8.277h0l-3.365,10.45c0,.177-.177.177-.354,0l-3.188-10.45a.173.173,0,0,0-.177-.177h-5.668a.173.173,0,0,0-.177.177V34.844a.173.173,0,0,0,.177.177h3.9a.173.173,0,0,0,.177-.177V14.653c0-.177.177-.177.354,0l3.188,10.45.177.708a.173.173,0,0,0,.177.177h3.011a.173.173,0,0,0,.177-.177l.177-.708,3.188-10.45c0-.177.354-.177.354,0V34.844a.173.173,0,0,0,.177.177h3.9a.173.173,0,0,0,.177-.177V8.277a.173.173,0,0,0-.177-.177h-6.2Z" transform="translate(80.714 6.069)" fill="#161616"/>
    <path id="Path_16073" data-name="Path 16073" d="M92.143,8.2H74.077a.173.173,0,0,0-.177.177v3.365a.173.173,0,0,0,.177.177h7.085V34.944a.173.173,0,0,0,.177.177h3.9a.173.173,0,0,0,.177-.177V11.919H92.5a.173.173,0,0,0,.177-.177L92.143,8.2Z" transform="translate(56.809 6.146)" fill="#161616"/>
    <path id="Path_16074" data-name="Path 16074" d="M104.094,35.021h3.542a.173.173,0,0,0,.177-.177L100.552,8.277a.173.173,0,0,0-.177-.177H95.239a.173.173,0,0,0-.177.177L87.8,34.844c0,.177,0,.177.177.177h3.542a.173.173,0,0,0,.177-.177l2.125-7.793A.173.173,0,0,1,94,26.874h7.793a.173.173,0,0,1,.177.177l2.125,7.97Zm-9.21-11.689,2.834-10.273c0-.177.177-.177.354,0l2.834,10.273c0,.177,0,.177-.177.177H95.062A.173.173,0,0,1,94.884,23.332Z" transform="translate(67.528 6.069)" fill="#161616"/>
    <path id="Path_16075" data-name="Path 16075" d="M137.694,35.021h3.542a.173.173,0,0,0,.177-.177L134.152,8.277a.173.173,0,0,0-.177-.177h-5.136a.173.173,0,0,0-.177.177L121.4,34.844c0,.177,0,.177.177.177h3.542a.173.173,0,0,0,.177-.177l2.125-7.793a.173.173,0,0,1,.177-.177h7.793a.173.173,0,0,1,.177.177l2.125,7.97Zm-9.033-11.689L131.5,13.059c0-.177.177-.177.354,0l2.834,10.273c0,.177,0,.177-.177.177h-5.668A.173.173,0,0,1,128.662,23.332Z" transform="translate(93.437 6.069)" fill="#161616"/>
    <path id="Path_16076" data-name="Path 16076" d="M63.074,31.048V22.9a.173.173,0,0,1,.177-.177H73.523a.173.173,0,0,0,.177-.177V19.181A.173.173,0,0,0,73.523,19H63.251a.173.173,0,0,1-.177-.177V11.742a.173.173,0,0,1,.177-.177H74.94a.173.173,0,0,0,.177-.177V8.377A.173.173,0,0,0,74.94,8.2H59.177A.173.173,0,0,0,59,8.377V34.59a.173.173,0,0,0,.177.177H75.294a.173.173,0,0,0,.177-.177V31.048a.173.173,0,0,0-.177-.177l-12.221.177Z" transform="translate(45.319 6.146)" fill="#161616"/>
    <path id="Path_16077" data-name="Path 16077" d="M174.376,34.767,161.093,21.129v-.177l12.044-12.4c.177-.177,0-.177-.177-.177h-5.136l-10.1,10.45c-.177.177-.177,0-.177-.177V8.377a.173.173,0,0,0-.177-.177h-3.9a.173.173,0,0,0-.177.177V34.944a.173.173,0,0,0,.177.177h3.9a.173.173,0,0,0,.177-.177V23.255a.173.173,0,0,1,.177-.177L169.24,34.944h5.136S174.554,34.767,174.376,34.767Z" transform="translate(118.036 6.146)" fill="#161616"/>
    <path id="Path_16078" data-name="Path 16078" d="M42.279.1,18.9,17.28l4.251-10.1Z" transform="translate(14.397 -0.1)" fill="#e17726" stroke="#e17726" stroke-linecap="round" stroke-linejoin="round" stroke-width="0.25"/>
    <path id="Path_16079" data-name="Path 16079" d="M1.8.1,24.825,17.457,20.751,7.185Z" transform="translate(1.211 -0.1)" fill="#e27625" stroke="#e27625" stroke-linecap="round" stroke-linejoin="round" stroke-width="0.25"/>
    <path id="Path_16080" data-name="Path 16080" d="M30.1,22.7l-6.2,9.387,13.283,3.719L40.9,22.877Z" transform="translate(18.253 17.327)" fill="#e27625" stroke="#e27625" stroke-linecap="round" stroke-linejoin="round" stroke-width="0.25"/>
    <path id="Path_16081" data-name="Path 16081" d="M.4,22.877,4.119,35.806,17.4,32.087,11.2,22.7Z" transform="translate(0.131 17.327)" fill="#e27625" stroke="#e27625" stroke-linecap="round" stroke-linejoin="round" stroke-width="0.25"/>
    <path id="Path_16082" data-name="Path 16082" d="M11.219,17.147,7.5,22.638l13.106.531L20.252,9Z" transform="translate(5.606 6.763)" fill="#e27625" stroke="#e27625" stroke-linecap="round" stroke-linejoin="round" stroke-width="0.25"/>
    <path id="Path_16083" data-name="Path 16083" d="M28.464,17.147,19.254,9,18.9,23.346l13.106-.531Z" transform="translate(14.397 6.763)" fill="#e27625" stroke="#e27625" stroke-linecap="round" stroke-linejoin="round" stroke-width="0.25"/>
    <path id="Path_16084" data-name="Path 16084" d="M10,32.01l7.97-3.9L11.063,22.8Z" transform="translate(7.534 17.405)" fill="#e27625" stroke="#e27625" stroke-linecap="round" stroke-linejoin="round" stroke-width="0.25"/>
    <path id="Path_16085" data-name="Path 16085" d="M19.4,28.113l7.97,3.9L26.307,22.8Z" transform="translate(14.783 17.405)" fill="#e27625" stroke="#e27625" stroke-linecap="round" stroke-linejoin="round" stroke-width="0.25"/>
    <path id="Path_16086" data-name="Path 16086" d="M27.37,29.7,19.4,25.8l.708,5.136v2.125Z" transform="translate(14.783 19.718)" fill="#d5bfb2" stroke="#d5bfb2" stroke-linecap="round" stroke-linejoin="round" stroke-width="0.25"/>
    <path id="Path_16087" data-name="Path 16087" d="M10,29.619l7.439,3.542V31.036l.708-5.136Z" transform="translate(7.534 19.795)" fill="#d5bfb2" stroke="#d5bfb2" stroke-linecap="round" stroke-linejoin="round" stroke-width="0.25"/>
    <path id="Path_16088" data-name="Path 16088" d="M17.053,22.674,10.5,20.725,15.1,18.6Z" transform="translate(7.92 14.166)" fill="#233447" stroke="#233447" stroke-linecap="round" stroke-linejoin="round" stroke-width="0.25"/>
    <path id="Path_16089" data-name="Path 16089" d="M19.6,22.674,21.548,18.6l4.6,2.125Z" transform="translate(14.937 14.166)" fill="#233447" stroke="#233447" stroke-linecap="round" stroke-linejoin="round" stroke-width="0.25"/>
    <path id="Path_16090" data-name="Path 16090" d="M12.7,32.087,13.762,22.7,6.5,22.877Z" transform="translate(4.835 17.327)" fill="#cc6228" stroke="#cc6228" stroke-linecap="round" stroke-linejoin="round" stroke-width="0.25"/>
    <path id="Path_16091" data-name="Path 16091" d="M23.2,22.7l1.063,9.387,6.2-9.21Z" transform="translate(17.713 17.327)" fill="#cc6228" stroke="#cc6228" stroke-linecap="round" stroke-linejoin="round" stroke-width="0.25"/>
    <path id="Path_16092" data-name="Path 16092" d="M32.106,16.8,19,17.331l1.24,6.73,1.948-4.074,4.6,2.125Z" transform="translate(14.474 12.778)" fill="#cc6228" stroke="#cc6228" stroke-linecap="round" stroke-linejoin="round" stroke-width="0.25"/>
    <path id="Path_16093" data-name="Path 16093" d="M12.813,22.113l4.6-2.125,1.948,4.074,1.24-6.73L7.5,16.8Z" transform="translate(5.606 12.778)" fill="#cc6228" stroke="#cc6228" stroke-linecap="round" stroke-linejoin="round" stroke-width="0.25"/>
    <path id="Path_16094" data-name="Path 16094" d="M7.5,16.8l5.49,10.8-.177-5.313Z" transform="translate(5.606 12.778)" fill="#e27525" stroke="#e27525" stroke-linecap="round" stroke-linejoin="round" stroke-width="0.25"/>
    <path id="Path_16095" data-name="Path 16095" d="M23.477,22.19,23.3,27.5l5.49-10.8Z" transform="translate(17.79 12.701)" fill="#e27525" stroke="#e27525" stroke-linecap="round" stroke-linejoin="round" stroke-width="0.25"/>
    <path id="Path_16096" data-name="Path 16096" d="M15.44,17.1,14.2,23.83l1.594,7.97.354-10.45Z" transform="translate(10.773 13.009)" fill="#e27525" stroke="#e27525" stroke-linecap="round" stroke-linejoin="round" stroke-width="0.25"/>
    <path id="Path_16097" data-name="Path 16097" d="M19.208,17.1,18.5,21.351l.354,10.45,1.594-7.97Z" transform="translate(14.089 13.009)" fill="#e27525" stroke="#e27525" stroke-linecap="round" stroke-linejoin="round" stroke-width="0.25"/>
    <path id="Path_16098" data-name="Path 16098" d="M20.294,21.748,18.7,29.718l1.063.708,6.907-5.313.177-5.313Z" transform="translate(14.243 15.091)" fill="#f5841f" stroke="#f5841f" stroke-linecap="round" stroke-linejoin="round" stroke-width="0.25"/>
    <path id="Path_16099" data-name="Path 16099" d="M10.5,19.8l.177,5.313,6.907,5.313,1.063-.708-1.594-7.97Z" transform="translate(7.92 15.091)" fill="#f5841f" stroke="#f5841f" stroke-linecap="round" stroke-linejoin="round" stroke-width="0.25"/>
    <path id="Path_16100" data-name="Path 16100" d="M27.18,31.542V29.417l-.531-.531H17.793l-.531.531v2.125L10,28l2.657,2.125,5.136,3.542h9.033l5.313-3.542L34.619,28Z" transform="translate(7.534 21.414)" fill="#c0ac9d" stroke="#c0ac9d" stroke-linecap="round" stroke-linejoin="round" stroke-width="0.25"/>
    <path id="Path_16101" data-name="Path 16101" d="M23.487,26.108,22.424,25.4H15.871l-1.063.708L14.1,31.245l.531-.531h8.856l.531.531Z" transform="translate(10.696 19.409)" fill="#161616" stroke="#161616" stroke-linecap="round" stroke-linejoin="round" stroke-width="0.25"/>
    <path id="Path_16102" data-name="Path 16102" d="M42.779,18.52l1.948-9.564L41.716.1,19.4,16.749l8.679,7.262L40.3,27.552l2.657-3.188-1.24-.708,1.948-1.771-1.417-1.063L44.2,19.405Z" transform="translate(14.783 -0.1)" fill="#763e1a" stroke="#763e1a" stroke-linecap="round" stroke-linejoin="round" stroke-width="0.25"/>
    <path id="Path_16103" data-name="Path 16103" d="M.1,8.956,2.048,18.52l-1.24.886,1.948,1.417L1.34,21.885l1.948,1.771-1.24.886L4.7,27.73l12.221-3.542L25.6,16.926,3.111.1Z" transform="translate(-0.1 -0.1)" fill="#763e1a" stroke="#763e1a" stroke-linecap="round" stroke-linejoin="round" stroke-width="0.25"/>
    <path id="Path_16104" data-name="Path 16104" d="M37.292,17.142,25.071,13.6l3.719,5.49-5.49,10.8,7.262-.177h10.8Z" transform="translate(17.79 10.31)" fill="#f5841f" stroke="#f5841f" stroke-linecap="round" stroke-linejoin="round" stroke-width="0.25"/>
    <path id="Path_16105" data-name="Path 16105" d="M16.694,13.6,4.474,17.142.4,29.717H11.2l7.262.177-5.49-10.8Z" transform="translate(0.131 10.31)" fill="#f5841f" stroke="#f5841f" stroke-linecap="round" stroke-linejoin="round" stroke-width="0.25"/>
    <path id="Path_16106" data-name="Path 16106" d="M23.912,27.125l.708-13.461L28.163,4.1H12.4l3.542,9.564.708,13.461L17,31.375v10.45h6.553V31.375Z" transform="translate(9.385 2.985)" fill="#f5841f" stroke="#f5841f" stroke-linecap="round" stroke-linejoin="round" stroke-width="0.25"/>
  </g>
</svg>
