<svg xmlns="http://www.w3.org/2000/svg" width="324.631" height="56.002" viewBox="0 0 324.631 56.002">
  <g id="logo2" transform="translate(0)">
    <g id="pancakeswap-cake-seeklogo.com" transform="translate(0)" style="isolation: isolate">
      <path id="Path_15988" data-name="Path 15988" d="M9.975,8.75A7.332,7.332,0,1,1,24.5,7.35v9.1c1.05,0,2.1-.175,3.15-.175a16.979,16.979,0,0,1,2.975.175V7.35A7.4,7.4,0,0,1,37.976,0a7.569,7.569,0,0,1,7.35,8.75L43.4,19.426c6.825,2.975,12.075,8.225,12.075,14.7v4.025c0,5.425-3.5,9.975-8.575,12.95C41.826,54.251,35.176,56,27.651,56S13.475,54.251,8.4,51.1C3.5,48.126,0,43.576,0,38.151V34.126c0-6.475,5.075-11.725,11.9-14.7Zm30.8,12.075,2.275-12.6A5.173,5.173,0,0,0,37.976,2.1,5.079,5.079,0,0,0,32.9,7.175v11.55a9.979,9.979,0,0,0-2.275-.175c-1.05,0-1.925-.175-2.975-.175a19.021,19.021,0,0,0-3.15.175c-.7,0-1.575.175-2.275.175V7.35A5.046,5.046,0,1,0,12.25,8.4L14.525,21c-7.35,2.8-12.25,7.7-12.25,13.3v4.025C2.275,46.9,13.65,53.9,27.651,53.9s25.376-7,25.376-15.575V34.3C53.2,28.526,48.3,23.626,40.776,20.826Z" fill="#633001" fill-rule="evenodd"/>
      <path id="Path_15989" data-name="Path 15989" d="M52.151,23.525C52.151,32.1,40.776,39.1,26.776,39.1S1.4,32.1,1.4,23.525V19.5H52.326v4.025Z" transform="translate(1.05 14.626)" fill="#fedc90"/>
      <path id="Path_15990" data-name="Path 15990" d="M11.2,7.425a5.046,5.046,0,1,1,9.975-1.05v11.55a53,53,0,0,1,5.425-.35c1.75,0,3.5.175,5.25.35V6.375A5.079,5.079,0,0,1,36.926,1.3,5.265,5.265,0,0,1,42,7.425l-2.275,12.6c7.35,2.8,12.425,7.7,12.425,13.3C52.151,41.9,40.776,48.9,26.776,48.9S1.4,41.9,1.4,33.326c0-5.6,4.9-10.5,12.25-13.3Z" transform="translate(1.05 0.975)" fill="#d1884f" fill-rule="evenodd"/>
      <path id="Path_15991" data-name="Path 15991" d="M14.2,20.7c0,2.275-1.225,4.2-2.8,4.2s-2.8-1.925-2.8-4.2,1.225-4.2,2.8-4.2S14.2,18.425,14.2,20.7Z" transform="translate(6.45 12.376)" fill="#633001"/>
      <path id="Path_15992" data-name="Path 15992" d="M25.3,20.7c0,2.275-1.225,4.2-2.8,4.2s-2.8-1.925-2.8-4.2,1.225-4.2,2.8-4.2S25.3,18.425,25.3,20.7Z" transform="translate(14.776 12.376)" fill="#633001"/>
    </g>
    <g id="svgg" transform="translate(69.337 10.667)">
      <path id="path0" d="M178.717,21.885c-8.287,1.994-7.43,10.821,1.462,15.069,9.316,4.45,4.43,8.366-5.229,4.192-.424-.183-1.362.667-2.084,1.89l-1.313,2.223,2.252,1.165c5.492,2.84,15.239,2.108,17.644-1.326,3.13-4.469,1.047-8.877-5.724-12.11-7.1-3.389-6.334-7.58,1.02-5.6,2.895.779,3.263.713,4.5-.818,2.822-3.486-5.141-6.463-12.531-4.684M13.87,23.067a116.935,116.935,0,0,0-.163,12.547l.207,11.579,3.518.227,3.518.227.227-3.972.228-3.972L25.9,39.31c9.63-.841,13.17-10.477,5.695-15.5-3.025-2.033-17-2.619-17.724-.743m113.864,0a116.837,116.837,0,0,0-.164,12.547l.207,11.579,3.3.236c3.77.27,4.54-.462,4.558-4.326l.011-2.591,2.435,3.52c2.376,3.436,2.529,3.521,6.367,3.528,4.787.009,4.8-.148.487-5.081l-3.446-3.939,3.446-4.034c4.252-4.977,4.255-4.918-.237-4.918-3.415,0-3.878.231-6.353,3.183l-2.669,3.183-.015-5.744a36.4,36.4,0,0,0-.469-6.929c-.574-1.5-6.893-1.681-7.454-.217M26.6,28.52c2.565,2.565.9,5.564-3.093,5.564-2.367,0-2.472-.122-2.472-2.871,0-4.077,2.817-5.44,5.565-2.693m17.864,1.011c-11.113,2.814-11.065,18.683.055,18.258,2.122-.081,5.8-.145,8.166-.141l4.308.007V39.492c0-8.086-.019-8.172-1.968-9.06a19.318,19.318,0,0,0-10.561-.9m24.719.384c-1.431.643-2.595.8-2.853.381-.239-.388-1.6-.705-3.013-.705H60.733v18.06l3.558-.228,3.558-.229.375-6.36c.619-10.509,4.462-9.677,4.483.97l.011,5.846,3.558-.228,3.558-.229.215-6.856c.3-9.749-3.742-13.629-10.872-10.423M89,29.872c-9.39,3.483-8.44,16.29,1.345,18.126,3.213.6,8.682-.16,10.459-1.459,1.951-1.426-.516-5.34-2.647-4.2-5.381,2.88-10.849-2.622-6.714-6.756,1.681-1.682,3.826-1.909,6.17-.655,1.651.884,3.568-.638,3.568-2.833,0-2.451-7.75-3.866-12.18-2.223m21.681.011c-10,3.716-9.3,18.26.857,17.9,1.925-.068,5.606-.137,8.182-.153l4.682-.028V39.465c0-8.115-.005-8.139-2.025-9.059a17.935,17.935,0,0,0-11.7-.523m43.933.409c-6.292,2.856-6.912,13.362-.975,16.539,3.935,2.105,14.96,1.353,14.96-1.021,0-2.485-1.774-3.44-4.869-2.621-3.429.908-7.116-.1-7.116-1.94,0-.883,1.353-1.157,6.554-1.329l6.555-.217-.087-2.826c-.2-6.507-7.828-9.851-15.021-6.584m76.811-.609c-9.4,2.637-10.057,17.168-.83,18.406a9.294,9.294,0,0,0,5.354-.748c1.274-.636,2.317-.845,2.317-.464s1.348.691,3,.691h3V31.051l-2.008-.763a19.841,19.841,0,0,0-10.825-.6m21.506-.04c-4.945,1.223-4.928,1.175-4.928,13.838v11.46l2.2.483c3.6.791,5.288-.628,5.288-4.44V47.711l2.836.381c8.326,1.117,13.565-7.926,8.8-15.193-2.074-3.165-8.56-4.652-14.2-3.256M195.162,31.65c.253,1.133,1.406,5.094,2.563,8.8l2.1,6.742,3.006.225c2.983.223,3.013.2,3.961-3.183,1.181-4.22,1.641-4.253,3.109-.225C211,47,211.24,47.194,213.953,47.194h2.886l2.079-6.742c3.548-11.5,3.559-10.995-.243-10.721l-3.254.234-1.057,4.452L213.31,38.87l-1.479-3.891c-2.143-5.64-4.846-5.623-6.906.042L203.5,38.954l-1.1-4.682-1.1-4.682H198c-3.212,0-3.288.055-2.841,2.06m-33.251,2.461c2.427,1.3,1.629,2.221-1.922,2.221-3.5,0-4.32-.871-2.06-2.187,1.677-.976,2.212-.981,3.982-.033M50.1,37.7c.267,3.715-.764,5.376-3.34,5.376-2.329,0-3.55-2.889-2.446-5.79,1.746-4.594,5.444-4.329,5.786.415m67.417-.462c.3,3.623-.923,5.838-3.227,5.838-3.417,0-4.3-4.955-1.4-7.853,2.131-2.131,4.368-1.157,4.631,2.015m120,.954c0,4.438-2.231,6.324-4.879,4.126-2.716-2.255-.449-8.232,3.122-8.232,1.629,0,1.757.3,1.757,4.106m22.932-2.209c1.935,2.953.613,6.718-2.359,6.718-2.176,0-2.223-.083-2.444-4.308-.261-5.012,2.267-6.282,4.8-2.411" transform="translate(-13.653 -21.354)" fill-rule="evenodd"/>
    </g>
  </g>
</svg>
