<svg id="logo4" xmlns="http://www.w3.org/2000/svg" width="262.671" height="65.473" viewBox="0 0 262.671 65.473">
  <path id="Path_16069" data-name="Path 16069" d="M-100.687-41.4a11.959,11.959,0,0,1,8.16,2.667,8.959,8.959,0,0,1,3.052,7.1A9.147,9.147,0,0,1-92.5-24.4q-3.029,2.667-8.228,2.667h-6.826V-9.3h-5.832V-41.4Zm-1.085,15.235a6.586,6.586,0,0,0,4.5-1.447,4.962,4.962,0,0,0,1.65-3.933,4.962,4.962,0,0,0-1.65-3.933,6.586,6.586,0,0,0-4.5-1.447h-5.787v10.759Zm16.41-9.494v-5.651h5.877v5.651ZM-85.09-9.3V-31.9h5.425V-9.3Zm12.613,0V-31.9h5.154v4.385a7.771,7.771,0,0,1,7.5-4.973q7.5,0,7.5,9.177V-9.3h-5.47V-22.772q0-5.334-4.2-5.334a4.369,4.369,0,0,0-3.73,1.808,8.308,8.308,0,0,0-1.334,5.018V-9.3Zm41.953,0-6.148-10.217-3.345,3.481V-9.3h-5.425V-42.076h5.425v20.208L-31.2-31.9h6.6l-8.273,8.861L-24.241-9.3Zm20.976.769a15.222,15.222,0,0,1-8.974-2.441,11.114,11.114,0,0,1-4.5-6.555l4.973-2.17a9.744,9.744,0,0,0,3.029,4.724,8.495,8.495,0,0,0,5.651,1.786,8.371,8.371,0,0,0,4.543-1.153,3.858,3.858,0,0,0,1.831-3.5,4,4,0,0,0-1.288-3.278,9.668,9.668,0,0,0-4.136-1.65l-4.476-.949Q-21.3-25.439-21.3-32.944a8.107,8.107,0,0,1,3.187-6.713q3.187-2.509,8.567-2.509A15.336,15.336,0,0,1-1.524-40.2a9.361,9.361,0,0,1,4.317,5.854L-1.863-31.9Q-3.49-37.736-9.82-37.736a7.089,7.089,0,0,0-4.227,1.153,3.708,3.708,0,0,0-1.6,3.187A4.032,4.032,0,0,0-14.5-30.344a8,8,0,0,0,3.82,1.7l4.656.995A13.19,13.19,0,0,1,.533-24.58a8.184,8.184,0,0,1,2.26,6.193,8.929,8.929,0,0,1-3.21,7.1Q-3.626-8.532-9.548-8.532Zm23.282-.226A8.2,8.2,0,0,1,8.15-10.589a6.126,6.126,0,0,1-2.1-4.86,5.633,5.633,0,0,1,2.758-5.108,21.6,21.6,0,0,1,7.369-2.034l4.792-.588v-.588a5.492,5.492,0,0,0-1.017-3.684A4.038,4.038,0,0,0,16.763-28.6a4.581,4.581,0,0,0-3.142,1.017,4.149,4.149,0,0,0-1.288,2.961H6.772A7.671,7.671,0,0,1,9.71-30.344a11.07,11.07,0,0,1,7.052-2.1q5.018,0,7.346,2.238t2.328,7.165v6.736A27.049,27.049,0,0,0,27.115-9.3H21.69a26.6,26.6,0,0,1-.362-3.888A6.39,6.39,0,0,1,18.5-9.933,9.289,9.289,0,0,1,13.734-8.758ZM15.5-12.6a5.335,5.335,0,0,0,4.069-1.627,6.062,6.062,0,0,0,1.537-4.34v-1.447l-5.108.769q-4.34.723-4.34,3.526a2.8,2.8,0,0,0,1.017,2.283A4.327,4.327,0,0,0,15.5-12.6ZM38.779-42.076V-9.3H33.354V-42.076ZM65.406-21.732v2.486H49.538a6.389,6.389,0,0,0,1.7,4.543,5.754,5.754,0,0,0,4.317,1.7,5.581,5.581,0,0,0,5.515-3.752l4.159,1.9A9.649,9.649,0,0,1,61.4-10.34,11.228,11.228,0,0,1,55.37-8.758q-5.2,0-8.137-3.052t-2.938-8.567q0-5.606,2.871-8.838A10.063,10.063,0,0,1,55.1-32.446q4.928,0,7.617,2.78T65.406-21.732Zm-5.334-1.085v-.362a6.059,6.059,0,0,0-1.311-4.2,4.8,4.8,0,0,0-3.752-1.447,5.035,5.035,0,0,0-3.978,1.582,6.8,6.8,0,0,0-1.492,4.43Z" transform="translate(197.266 59.964)"/>
  <ellipse id="Ellipse_1628" data-name="Ellipse 1628" cx="32.736" cy="32.736" rx="32.736" ry="32.736" transform="translate(0 0)" fill="#fdeaf1"/>
  <g id="svgg" transform="translate(12.544 19.274)">
    <path id="path0" d="M101.771,100.442c-.047.158-.287,1-.533,1.864s-.477,1.681-.513,1.807a4.244,4.244,0,0,1-1.657.774c-1,.343-1.518.585-1.4.653.107.06.791.316,1.518.569,1.583.552,1.44.381,2.115,2.507l.547,1.721.594-1.772c.681-2.032.616-1.963,2.469-2.6a4.485,4.485,0,0,0,1.264-.532l-1.637-.583-1.5-.534-.545-1.936c-.3-1.065-.566-2-.593-2.08s-.087-.014-.134.143m-29.2,3.606a.6.6,0,0,0-.076.974,33.868,33.868,0,0,0,7.385.077c.317-.17.384-.915.1-1.094a39.933,39.933,0,0,0-7.407.043m14.937-.081a.671.671,0,0,0-.045,1.132,22.939,22.939,0,0,0,3.667.148c3.575,0,3.944-.059,3.944-.633,0-.683-.23-.728-3.858-.75a32.2,32.2,0,0,0-3.707.1M75.15,107.716c-.914.489-.946.644-.946,4.638V116l.469.469a1.444,1.444,0,0,0,2.2,0l.419-.468V108.55l-.394-.438a1.507,1.507,0,0,0-1.743-.4m15.594.5c-.649.4-.692.684-.692,4.546,0,3.423.016,3.652.289,4a1.606,1.606,0,0,0,2.508-.037c.346-.387.52-6.475.217-7.6a1.552,1.552,0,0,0-2.322-.91m-24.328,4a3.809,3.809,0,1,0,3.2-.1,4.115,4.115,0,0,0-3.2.1m31.4-.152a3.813,3.813,0,1,0,3.1.152,4.285,4.285,0,0,0-3.1-.152m-22.252,10.68c-1.734,1.734,4.541,4.288,9.243,3.763,3.673-.41,7.394-1.907,7.394-2.974,0-1.1-.792-1.228-2.646-.436-4.549,1.943-9.377,1.809-12.4-.344a1.263,1.263,0,0,0-1.59-.008" transform="translate(-64.275 -100.265)" fill="#f95192" fill-rule="evenodd"/>
  </g>
</svg>
