<svg id="logo6" xmlns="http://www.w3.org/2000/svg" width="174.747" height="65.475" viewBox="0 0 174.747 65.475">
  <g id="svgg" transform="translate(0 0.001)" style="isolation: isolate">
    <path id="path0" d="M96.264,54.034c-3.851,1.965-7.1,3.664-7.213,3.774S91,59.087,93.737,60.454L98.632,62.9l2.262-1.123c2.758-1.371,2.453-1.373,5.143.039l2.215,1.163,5.145-2.283a43.352,43.352,0,0,0,5.048-2.439,10.434,10.434,0,0,0-1.584-.917c-.818-.419-4.171-2.141-7.451-3.828s-6-3.063-6.052-3.058-3.242,1.616-7.093,3.582m-17.62,8.933-4.209,2.076,0,9.2c0,5.059.033,9.2.078,9.2a5.8,5.8,0,0,0,.771-.33c.38-.181,2.318-1.049,4.309-1.928l3.62-1.6V74.745a43.108,43.108,0,0,1,.137-4.836c.13,0,1.067.487,7.393,3.838L93.4,75.157l4.752-2.09c2.613-1.15,4.753-2.145,4.754-2.211,0-.137-19.6-9.969-19.877-9.967-.1,0-2.071.935-4.386,2.077m40.813.694-5.171,2.29,3.392,1.856c1.865,1.02,3.472,1.857,3.57,1.86.712.02-.267.607-2.968,1.779C115.417,72.689,99.5,79.7,97.807,80.461c-1.538.693-15.115,6.682-17.8,7.852-1.567.683-3.462,1.524-4.213,1.869l-1.365.628v10.821l3.684,1.817,3.684,1.818,1.6-.738c.879-.406,2.879-1.3,4.446-1.981s3.143-1.382,3.5-1.552l.655-.308-1.011-.574c-.556-.316-1.6-.9-2.31-1.288-3.772-2.07-3.673-1.962-2.32-2.553l4.807-2.1c2.089-.911,4.515-1.988,5.392-2.392s2.265-1.015,3.085-1.357,5.443-2.369,10.274-4.505S121.794,80.669,125.579,79l6.883-3.039.071-5.392.07-5.392L128.8,63.269c-4.557-2.282-3.173-2.34-9.34.391m8.768,21.2c-2.33,1.028-4.306,1.937-4.391,2.022a42.511,42.511,0,0,0-.068,5c.048,2.665.048,4.845,0,4.844s-1.528-.75-3.291-1.664-4.068-2.108-5.123-2.651l-1.919-.989-4.491,1.97c-2.47,1.083-4.577,2.049-4.684,2.147s4.273,2.423,9.732,5.168l9.926,4.992,4.329-2.171,4.329-2.17,0-9.2c0-5.059-.024-9.192-.057-9.183s-1.966.855-4.3,1.884m-21.8,20.337-3.017,1.278-2.392-1.2-2.392-1.2-4.961,2.2c-4.577,2.026-5.758,2.8-4.271,2.8.1,0,3.312,1.542,7.129,3.426l6.941,3.426,1.8-.894c.991-.492,3.245-1.579,5.007-2.416s4.415-2.112,5.894-2.832l2.69-1.311L116.4,107.31c-1.349-.64-3.468-1.664-4.708-2.277l-2.255-1.112-3.016,1.278" transform="translate(-74.427 -50.452)" fill="#03aed0" fill-rule="evenodd"/>
  </g>
  <path id="path0-2" data-name="path0" d="M38.567,55.538V70.3l6.848-.134c6.609-.129,6.932-.168,9.274-1.135C65.721,64.48,66.669,47.958,56.2,42.653c-3.028-1.534-5.181-1.882-11.639-1.882H38.567V55.538m27.39-.031V70.241H82.6V64.694H72.544V57.76h7.974V52.212h-8l.1-2.86.1-2.86,4.941-.1,4.94-.1V40.771H65.957V55.506M82.946,41c0,.217,6.445,9.279,8.917,12.537,1.527,2.013,1.768,1.439-3.884,9.248-2.761,3.814-5.022,7.051-5.026,7.194a14.839,14.839,0,0,0,3.894.248l3.9-.012,3.247-4.5c1.786-2.472,3.278-4.5,3.317-4.5s1.531,2.028,3.318,4.507l3.248,4.507H107.8a22.633,22.633,0,0,0,3.923-.172c0-.1-2.288-3.329-5.085-7.189s-5.085-7.178-5.085-7.375c0-.378,8.763-12.676,9.874-13.858.629-.67.643-.624.643,2.167v2.851h6.241v23.6l3.554-.1,3.554-.1.091-11.7.091-11.7h6.915L130.7,43.721l-1.815-2.944-12.5,0-12.5,0-3.261,4.54-3.261,4.54-.792-.986c-.435-.542-1.923-2.583-3.3-4.534l-2.513-3.547-3.9-.007a16.747,16.747,0,0,0-3.9.224M52.168,47.608C60.348,52.06,57.233,63.88,47.69,64.6l-2.536.192V46.217l2.638.223a10.19,10.19,0,0,1,4.375,1.169" transform="translate(42.232 -22.843)" fill-rule="evenodd"/>
</svg>
