<svg xmlns="http://www.w3.org/2000/svg" width="250.202" height="55.082" viewBox="0 0 250.202 55.082">
  <g id="logo3" transform="translate(0)">
    <g id="poocoin-poocoin-logo" transform="translate(0)" style="isolation: isolate">
      <path id="Path_15993" data-name="Path 15993" d="M160.438,90.639a18.308,18.308,0,0,0-3.2-3.908,10.305,10.305,0,0,1-2.382-.639,1.885,1.885,0,0,1-1.141-1.29c-.217-1.172.918-1.824,1.948-1.805a6.409,6.409,0,0,1,2.1.533c.329-.285-.043-2.01-.118-2.407-.521-2.9-3.132-4.64-5.186-6.47-1.78-1.588-3.809-3.151-5.074-5.173a12.568,12.568,0,0,1-1.948-6.631,11.8,11.8,0,0,1,1.507-5.75,21.1,21.1,0,0,0-5.334,2.152c-3.225,2.984-5.514,6.786-7.692,10.588a6.675,6.675,0,0,0-.968,3.2c.006,0,.019.006.025.006a4.093,4.093,0,0,1,2.642,1.5,1.559,1.559,0,0,1-1.755,2.233c-1.011-.236-1.948-.6-2.909-.906A7.281,7.281,0,0,0,125.3,80.64a5.857,5.857,0,0,0,.571,5.229,11.057,11.057,0,0,1,1.11.025,8.766,8.766,0,0,1,3.418.856,1.624,1.624,0,0,1,.726,2.376c-.924,1.272-2.326.211-3.43-.05a2.508,2.508,0,0,0-.3-.056c-4.627,1.2-5.868,6.873-3.486,10.532a14.345,14.345,0,0,0,2.611,2.9c.726.639,2.084,2.047,3.033,2.227a63.8,63.8,0,0,0,10.657.992,74.4,74.4,0,0,0,16.45-1.594q.763-.158,1.526-.354c.478-.124,1.234-1.34,1.538-1.731A10.181,10.181,0,0,0,160.438,90.639Z" transform="translate(-115.111 -53.558)" fill="#825c3c"/>
      <path id="Path_15994" data-name="Path 15994" d="M50.632,34.4A13.8,13.8,0,0,0,47.32,31.69a15.453,15.453,0,0,0,1.42-3,8.235,8.235,0,0,0,.118-3.281c-.664-4.162-4.4-6.017-7.648-8.008-2.332-1.433-4.652-3.511-5.44-6.221a6.812,6.812,0,0,1,.658-5.124A7.844,7.844,0,0,1,38.121,3.92c.6-.527,1.34-.85,1.557-1.687C40.472-.826,33.841.061,32.34.316c-5.167.887-9.844,3.9-13.752,7.264a29.648,29.648,0,0,0-4.913,4.906A12.461,12.461,0,0,0,12.038,15.5a18.993,18.993,0,0,0-.552,3.35,8.653,8.653,0,0,0-2.227.72,10.9,10.9,0,0,0-5.539,7.586A8.794,8.794,0,0,0,5,34.121c-.087-.112-1.514,1.073-1.656,1.2A9.893,9.893,0,0,0,.165,44.629,9.458,9.458,0,0,0,2.473,49.07c2.984,3.238,7.586,4.354,11.761,5.068a78.8,78.8,0,0,0,19.893.583c6.339-.54,14.353-1.576,17.995-7.474C54.85,42.843,53.746,37.9,50.632,34.4Zm.068,8.492a7.812,7.812,0,0,1-3.573,5.595,16.314,16.314,0,0,1-5.6,2.041,74.026,74.026,0,0,1-16.45,1.594A53.129,53.129,0,0,1,9.3,49.809c-2.611-.887-5.148-2.642-6-5.272-1.371-4.206,2.264-7.909,6.1-8.926a6.529,6.529,0,0,1,3.17-.081c1.11.261,2.512,1.321,3.43.05a1.624,1.624,0,0,0-.726-2.376,8.686,8.686,0,0,0-3.418-.856,10.22,10.22,0,0,0-1.948.031c-.223.025-1.879.509-1.942.447C4.185,29.2,8.1,21.933,12.949,21.834c2.109-.043,3.8.93,5.781,1.389a1.559,1.559,0,0,0,1.755-2.233,4.123,4.123,0,0,0-2.642-1.5c-.254-.062-3.257-.6-3.257-.658-.081-3.312,2.754-5.949,5.006-8,4.019-3.66,9.149-7.381,15.11-7.723-2.332,1.532-2.562,5.508-2.134,7.977.9,5.155,5.1,7.865,9.323,10.241a9.221,9.221,0,0,1,3.25,2.636,4.924,4.924,0,0,1,.664,3.647,7.868,7.868,0,0,1-.49,1.5c-.056.13-.558,1.445-.682,1.414-2.661-.626-3-1.079-4.1-1.092-1.03-.012-2.165.633-1.948,1.805a1.871,1.871,0,0,0,1.141,1.29c1.594.7,3.443.608,5.074,1.365C48.293,35.5,51.2,38.817,50.7,42.892Z" transform="translate(0.029 0.001)"/>
      <g id="Group_161635" data-name="Group 161635" transform="translate(21.096 39.017)">
        <path id="Path_15995" data-name="Path 15995" d="M340.835,632.026a5.785,5.785,0,0,0,1.247.757,9.615,9.615,0,0,0,8.33-.093,4.565,4.565,0,0,0,1.942-1.427,1.547,1.547,0,0,0-.875-2.2,1.836,1.836,0,0,0-1.079.062c-1.03.341-1.687.98-2.76,1.247a5.972,5.972,0,0,1-2.94-.037c-.937-.254-1.979-1.042-2.922-1.191a1.618,1.618,0,0,0-1.638,1.073A1.66,1.66,0,0,0,340.835,632.026Z" transform="translate(-340.063 -629.012)"/>
      </g>
      <g id="Group_161636" data-name="Group 161636" transform="translate(19.961 29.294)">
        <path id="Path_15996" data-name="Path 15996" d="M321.779,474.427a2.424,2.424,0,0,0,2.394,2.791,2.517,2.517,0,0,0,2.078-3.046,2.278,2.278,0,0,0-3.957-1.1A2.459,2.459,0,0,0,321.779,474.427Z" transform="translate(-321.771 -472.266)"/>
      </g>
      <g id="Group_161637" data-name="Group 161637" transform="translate(30.177 29.294)">
        <path id="Path_15997" data-name="Path 15997" d="M486.479,474.427a2.424,2.424,0,0,0,2.394,2.791,2.517,2.517,0,0,0,2.078-3.046,2.278,2.278,0,0,0-3.957-1.1A2.459,2.459,0,0,0,486.479,474.427Z" transform="translate(-486.471 -472.266)"/>
      </g>
      <g id="Group_161638" data-name="Group 161638" transform="translate(28.74 3.108)">
        <path id="Path_15998" data-name="Path 15998" d="M640.7,819.181c.149-.025.3-.056.447-.081C641,819.125,640.849,819.15,640.7,819.181Z" transform="translate(-629.696 -771.4)" fill="#6b4b32"/>
        <path id="Path_15999" data-name="Path 15999" d="M668.937,532.806c-.012,0-.025-.006-.037-.006A.079.079,0,0,0,668.937,532.806Z" transform="translate(-656.147 -502.859)" fill="#6b4b32"/>
        <path id="Path_16000" data-name="Path 16000" d="M625.4,821.881c.155-.025.31-.056.471-.081C625.716,821.825,625.561,821.85,625.4,821.881Z" transform="translate(-615.345 -773.932)" fill="#6b4b32"/>
        <path id="Path_16001" data-name="Path 16001" d="M623.3,507.2c.025.068.056.13.087.2A1.135,1.135,0,0,1,623.3,507.2Z" transform="translate(-613.375 -478.847)" fill="#6b4b32"/>
        <path id="Path_16002" data-name="Path 16002" d="M622.4,503.9a1.262,1.262,0,0,0,.056.2A1.262,1.262,0,0,1,622.4,503.9Z" transform="translate(-612.531 -475.751)" fill="#6b4b32"/>
        <path id="Path_16003" data-name="Path 16003" d="M624.7,510.5a1.745,1.745,0,0,0,.112.18C624.774,510.624,624.737,510.562,624.7,510.5Z" transform="translate(-614.688 -481.942)" fill="#6b4b32"/>
        <path id="Path_16004" data-name="Path 16004" d="M657.631,474.8h0Z" transform="translate(-645.548 -448.456)" fill="#6b4b32"/>
        <path id="Path_16005" data-name="Path 16005" d="M663.668,531.712a.224.224,0,0,0-.068-.012A.224.224,0,0,0,663.668,531.712Z" transform="translate(-651.176 -501.827)" fill="#6b4b32"/>
        <path id="Path_16006" data-name="Path 16006" d="M655.825,474.7h0Z" transform="translate(-643.859 -448.363)" fill="#6b4b32"/>
        <path id="Path_16007" data-name="Path 16007" d="M658.581,530.519l-.081-.019Z" transform="translate(-646.392 -500.701)" fill="#6b4b32"/>
        <path id="Path_16008" data-name="Path 16008" d="M655.8,816.374l.372-.074Z" transform="translate(-643.859 -768.774)" fill="#6b4b32"/>
        <path id="Path_16009" data-name="Path 16009" d="M626.736,513.667a1.235,1.235,0,0,1-.136-.167C626.643,513.556,626.687,513.612,626.736,513.667Z" transform="translate(-616.471 -484.756)" fill="#6b4b32"/>
        <path id="Path_16010" data-name="Path 16010" d="M648.5,527.5a.607.607,0,0,0,.1.031A.88.88,0,0,1,648.5,527.5Z" transform="translate(-637.012 -497.887)" fill="#6b4b32"/>
        <path id="Path_16011" data-name="Path 16011" d="M643.6,525.7c.037.012.068.031.105.043C643.674,525.731,643.637,525.712,643.6,525.7Z" transform="translate(-632.416 -496.199)" fill="#6b4b32"/>
        <path id="Path_16012" data-name="Path 16012" d="M493.3,50.1a16.431,16.431,0,0,0-3.585.62c.23-.062.459-.124.695-.18a11.805,11.805,0,0,0-1.507,5.75,12.624,12.624,0,0,0,1.948,6.631c1.265,2.028,3.3,3.591,5.074,5.173,2.053,1.83,4.665,3.567,5.186,6.47.068.4.44,2.121.118,2.407-.515-.167-.868-.31-1.2-.4a33.166,33.166,0,0,0,3.194.955c.124.031.626-1.284.682-1.414a8.013,8.013,0,0,0,.49-1.5,4.89,4.89,0,0,0-.664-3.647,9.089,9.089,0,0,0-3.25-2.636c-4.212-2.376-8.424-5.086-9.323-10.247C490.736,55.608,490.972,51.632,493.3,50.1Z" transform="translate(-487.312 -50.1)" fill="#6b4b32"/>
        <path id="Path_16013" data-name="Path 16013" d="M653.4,529.1c.031.006.062.019.093.025C653.462,529.119,653.431,529.106,653.4,529.1Z" transform="translate(-641.608 -499.388)" fill="#6b4b32"/>
        <path id="Path_16014" data-name="Path 16014" d="M637.6,523l.186.093Z" transform="translate(-626.788 -493.667)" fill="#6b4b32"/>
        <path id="Path_16015" data-name="Path 16015" d="M631.6,518.8a1.6,1.6,0,0,0,.161.124A1.6,1.6,0,0,1,631.6,518.8Z" transform="translate(-621.161 -489.727)" fill="#6b4b32"/>
        <path id="Path_16016" data-name="Path 16016" d="M629.149,516.443A1.6,1.6,0,0,1,629,516.3,1.084,1.084,0,0,0,629.149,516.443Z" transform="translate(-618.722 -487.382)" fill="#6b4b32"/>
        <path id="Path_16017" data-name="Path 16017" d="M634.5,521.1c.056.037.118.074.174.112C634.618,521.174,634.556,521.137,634.5,521.1Z" transform="translate(-623.881 -491.884)" fill="#6b4b32"/>
        <path id="Path_16018" data-name="Path 16018" d="M622.3,478.529a1.537,1.537,0,0,1,1-1.129A1.525,1.525,0,0,0,622.3,478.529Z" transform="translate(-612.437 -450.895)" fill="#6b4b32"/>
        <path id="Path_16019" data-name="Path 16019" d="M480.2,65.043c.136-.05.267-.093.4-.143C480.467,64.943,480.33,64.993,480.2,65.043Z" transform="translate(-479.152 -63.982)" fill="#6b4b32"/>
        <path id="Path_16020" data-name="Path 16020" d="M470.135,69.1c-.112.043-.223.081-.335.13h0Z" transform="translate(-469.397 -67.921)" fill="#6b4b32"/>
        <path id="Path_16021" data-name="Path 16021" d="M477.5,839.012c.081-.006.167-.006.254-.012C477.668,839.006,477.581,839.012,477.5,839.012Z" transform="translate(-476.619 -790.065)" fill="#6b4b32"/>
        <path id="Path_16022" data-name="Path 16022" d="M530.2,835.225c.1-.006.2-.019.3-.025C530.4,835.206,530.3,835.219,530.2,835.225Z" transform="translate(-526.05 -786.501)" fill="#6b4b32"/>
        <path id="Path_16023" data-name="Path 16023" d="M491.533,60.8c-.18.05-.354.105-.533.161C491.18,60.905,491.354,60.85,491.533,60.8Z" transform="translate(-489.282 -60.136)" fill="#6b4b32"/>
        <path id="Path_16024" data-name="Path 16024" d="M492.2,838.312c.074-.006.149-.006.223-.012C492.349,838.3,492.274,838.306,492.2,838.312Z" transform="translate(-490.407 -789.409)" fill="#6b4b32"/>
        <path id="Path_16025" data-name="Path 16025" d="M683.888,809q-.344.093-.689.167Z" transform="translate(-669.56 -761.926)" fill="#6b4b32"/>
        <path id="Path_16026" data-name="Path 16026" d="M463.3,839.706c.068,0,.137-.006.211-.006C463.443,839.7,463.368,839.706,463.3,839.706Z" transform="translate(-463.3 -790.722)" fill="#6b4b32"/>
        <path id="Path_16027" data-name="Path 16027" d="M681.8,535.526a11.065,11.065,0,0,0-2.7-.726,18.124,18.124,0,0,1,3.2,3.908,10.2,10.2,0,0,1-.707,11.364c-.3.391-1.055,1.6-1.532,1.731a14.207,14.207,0,0,0,4.069-1.681,7.794,7.794,0,0,0,3.573-5.595C688.206,540.445,685.3,537.132,681.8,535.526Z" transform="translate(-665.714 -504.735)" fill="#6b4b32"/>
        <path id="Path_16028" data-name="Path 16028" d="M659.818,475.03H659.8A.012.012,0,0,1,659.818,475.03Z" transform="translate(-647.611 -448.667)" fill="#6b4b32"/>
        <path id="Path_16029" data-name="Path 16029" d="M672.326,812c-.2.05-.416.093-.626.136C671.911,812.093,672.122,812.05,672.326,812Z" transform="translate(-658.773 -764.74)" fill="#6b4b32"/>
        <path id="Path_16030" data-name="Path 16030" d="M663.25,475.512a.146.146,0,0,1-.05-.012A.146.146,0,0,0,663.25,475.512Z" transform="translate(-650.8 -449.113)" fill="#6b4b32"/>
        <path id="Path_16031" data-name="Path 16031" d="M544.2,833.637l.385-.037Z" transform="translate(-539.182 -785)" fill="#6b4b32"/>
        <path id="Path_16032" data-name="Path 16032" d="M666.981,476.419l-.081-.019Z" transform="translate(-654.271 -449.957)" fill="#6b4b32"/>
        <path id="Path_16033" data-name="Path 16033" d="M661.643,475.306c-.012,0-.031-.006-.043-.006A.106.106,0,0,1,661.643,475.306Z" transform="translate(-649.3 -448.925)" fill="#6b4b32"/>
        <path id="Path_16034" data-name="Path 16034" d="M664.924,475.831c-.043-.012-.087-.019-.124-.031A.728.728,0,0,0,664.924,475.831Z" transform="translate(-652.301 -449.394)" fill="#6b4b32"/>
        <path id="Path_16035" data-name="Path 16035" d="M558.9,831.85c.136-.012.279-.031.416-.05C559.179,831.819,559.043,831.837,558.9,831.85Z" transform="translate(-552.97 -783.312)" fill="#6b4b32"/>
        <path id="Path_16036" data-name="Path 16036" d="M610,824.381c.167-.025.329-.05.49-.081C610.329,824.331,610.167,824.356,610,824.381Z" transform="translate(-600.9 -776.277)" fill="#6b4b32"/>
        <path id="Path_16037" data-name="Path 16037" d="M573.9,829.862c.155-.019.31-.043.465-.062C574.21,829.825,574.055,829.843,573.9,829.862Z" transform="translate(-567.04 -781.436)" fill="#6b4b32"/>
        <path id="Path_16038" data-name="Path 16038" d="M592.013,826.7c-.236.037-.471.068-.713.105C591.542,826.774,591.778,826.737,592.013,826.7Z" transform="translate(-583.36 -778.528)" fill="#6b4b32"/>
      </g>
      <g id="Group_161639" data-name="Group 161639" transform="translate(3.027 4.416)">
        <path id="Path_16039" data-name="Path 16039" d="M231.386,571.067c.037-.056.074-.112.105-.167-.031.056-.068.112-.105.167a1.476,1.476,0,0,1-1.786.515A1.478,1.478,0,0,0,231.386,571.067Z" transform="translate(-218.383 -539.904)" fill="#936747"/>
        <path id="Path_16040" data-name="Path 16040" d="M239.774,97.229c2.171-3.8,4.466-7.6,7.692-10.588.2-.118.416-.23.627-.341a37.175,37.175,0,0,0-7.512,5.477c-2.252,2.053-5.086,4.689-5.006,8,0,.056,2.853.564,3.232.651A6.675,6.675,0,0,1,239.774,97.229Z" transform="translate(-223.986 -85.363)" fill="#936747"/>
        <path id="Path_16041" data-name="Path 16041" d="M244.349,534.081c-.05-.025-.1-.056-.149-.081.05.025.1.05.149.081.031.019.056.037.087.056C244.411,534.118,244.38,534.1,244.349,534.081Z" transform="translate(-232.078 -505.293)" fill="#936747"/>
        <path id="Path_16042" data-name="Path 16042" d="M258.409,360.706a1.572,1.572,0,0,0,1.116-.161,1.577,1.577,0,0,1-1.116.161c-1.011-.236-1.948-.6-2.909-.906C256.455,360.1,257.4,360.476,258.409,360.706Z" transform="translate(-242.677 -341.898)" fill="#936747"/>
        <path id="Path_16043" data-name="Path 16043" d="M437.816,82.9c-.136.068-.279.136-.416.211C437.543,83.036,437.679,82.968,437.816,82.9Z" transform="translate(-413.294 -82.174)" fill="#936747"/>
        <path id="Path_16044" data-name="Path 16044" d="M293.4,315.7a7.844,7.844,0,0,1,.862.292A5.883,5.883,0,0,0,293.4,315.7Z" transform="translate(-278.226 -300.534)" fill="#936747"/>
        <path id="Path_16045" data-name="Path 16045" d="M469.425,71.2h0c-.006,0-.012.006-.025.006C469.406,71.206,469.419,71.2,469.425,71.2Z" transform="translate(-443.309 -71.2)" fill="#936747"/>
        <path id="Path_16046" data-name="Path 16046" d="M458.91,73.8c-.105.043-.211.087-.31.13Z" transform="translate(-433.179 -73.639)" fill="#936747"/>
        <path id="Path_16047" data-name="Path 16047" d="M448.247,78.4c-.112.056-.229.105-.347.161C448.018,78.505,448.13,78.45,448.247,78.4Z" transform="translate(-423.143 -77.953)" fill="#936747"/>
        <path id="Path_16048" data-name="Path 16048" d="M60.2,586.161c-.943-.18-2.307-1.588-3.033-2.227a14.725,14.725,0,0,1-2.611-2.9c-2.388-3.66-1.148-9.329,3.48-10.526a6.8,6.8,0,0,0-2.872.143c-3.833,1.017-7.462,4.72-6.1,8.926.856,2.624,3.387,4.379,6,5.272a42.59,42.59,0,0,0,8.461,1.836C62.413,586.539,61.3,586.372,60.2,586.161Z" transform="translate(-48.771 -539.447)" fill="#936747"/>
        <path id="Path_16049" data-name="Path 16049" d="M299.085,834.018c-.4-.037-.788-.074-1.185-.118C298.3,833.943,298.694,833.981,299.085,834.018Z" transform="translate(-282.447 -786.591)" fill="#936747"/>
        <path id="Path_16050" data-name="Path 16050" d="M286.8,832.6l.664.074C287.24,832.656,287.017,832.625,286.8,832.6Z" transform="translate(-272.035 -785.371)" fill="#936747"/>
        <path id="Path_16051" data-name="Path 16051" d="M426.7,840.5h0Z" transform="translate(-403.258 -792.781)" fill="#936747"/>
        <path id="Path_16052" data-name="Path 16052" d="M334.3,837.2c.248.019.5.037.738.05C334.79,837.237,334.548,837.219,334.3,837.2Z" transform="translate(-316.589 -789.686)" fill="#936747"/>
        <path id="Path_16053" data-name="Path 16053" d="M107.9,362.522q.419-.047.837-.056a5.877,5.877,0,0,1-.571-5.229,7.261,7.261,0,0,1,5.651-4.764,8.916,8.916,0,0,0-2.872-.49c-4.838.1-8.765,7.357-4.987,10.992C106.024,363.031,107.681,362.553,107.9,362.522Z" transform="translate(-100.998 -334.566)" fill="#936747"/>
        <path id="Path_16054" data-name="Path 16054" d="M387.2,839.9c.074,0,.155.006.229.006C387.349,839.906,387.274,839.9,387.2,839.9Z" transform="translate(-366.208 -792.219)" fill="#936747"/>
        <path id="Path_16055" data-name="Path 16055" d="M320.2,836.1c.18.012.366.031.546.043C320.566,836.131,320.38,836.112,320.2,836.1Z" transform="translate(-303.364 -788.654)" fill="#936747"/>
        <path id="Path_16056" data-name="Path 16056" d="M353.9,838.5l.385.019Z" transform="translate(-334.973 -790.905)" fill="#936747"/>
        <path id="Path_16057" data-name="Path 16057" d="M371,839.3c.081,0,.161.006.242.012C371.161,839.306,371.081,839.306,371,839.3Z" transform="translate(-351.013 -791.656)" fill="#936747"/>
      </g>
    </g>
    <g id="svgg" transform="translate(68.896 12)">
      <path id="path0" d="M103.594,22.294c-10.366,5.415-9.174,24.287,1.778,28.151,7.332,2.586,15.725.028,18.721-5.706,1.576-3.017,1.162-3.73-2.805-4.833-3.68-1.023-4.593-.794-4.621,1.158-.045,3.157-6.891,4.543-9.2,1.862-2.537-2.949-2.5-10.942.058-13.921,2.1-2.446,6.315-2.267,8.511.364l1.614,1.933,3.194-.667c4.029-.842,4.384-1.2,3.3-3.279-3.371-6.456-13.23-8.885-20.549-5.061M12.717,36V50.763h8.814L21.7,45.3l.17-5.462,5.059-.3c7.651-.46,10.586-3.077,10.586-9.44,0-7.41-2.5-8.859-15.321-8.859H12.717V36m144.8-12.254.182,2.51,3.986.175,3.987.175v-5.37H157.34l.181,2.51m-130,4.007c3.328,1.78.856,5.885-3.543,5.885h-2.4v-6.5h2.4a9.521,9.521,0,0,1,3.543.611m19.155,2.276c-12.357,5.7-6.567,22.552,7.262,21.135C69.258,49.594,68,28.938,52.58,28.938a15.127,15.127,0,0,0-5.905,1.09m28.056-.175c-12.282,5.326-6.951,22.538,6.625,21.385,8.136-.691,12.815-7.1,10.863-14.877-1.456-5.8-10.961-9.338-17.487-6.508m60.968-.239c-7.239,2.454-9.52,12.518-4.071,17.967,9.712,9.712,26.062-.32,20.5-12.577-2.219-4.887-10.193-7.5-16.426-5.39m46.725.433a9.236,9.236,0,0,0-2.255,1.779c-.567.917-1.5.184-1.5-1.178,0-1.007-.43-1.146-3.543-1.146h-3.544V50.763h7.55l.213-6.7c.233-7.329.755-8.652,3.412-8.652,2.691,0,3,.862,3,8.386v6.969h8.268l0-8.416c0-12.349-4.207-16.807-11.6-12.3M157.408,40.133v10.63h8.268V29.5h-8.268V40.133M54.97,35.677c1.922,1.922,2.074,6.785.269,8.59a4.057,4.057,0,0,1-6.863-2.14c-1.408-5.61,3.062-9.982,6.594-6.45m27.651-.225c1.865,1.467,2.227,6.414.637,8.684-2,2.854-6.331,1.233-7.109-2.66-1.016-5.078,2.966-8.783,6.473-6.024m60.566-.191c1.382,1.129,2.177,4.55,1.6,6.866-1.428,5.687-8.044,4.025-8.044-2.02,0-4.782,3.4-7.337,6.449-4.845" transform="translate(-12.717 -20.472)" fill-rule="evenodd"/>
    </g>
  </g>
</svg>
