<svg id="logo9" xmlns="http://www.w3.org/2000/svg" width="224.489" height="57.053" viewBox="0 0 224.489 57.053">
  <g id="bscscan-logo-circle" transform="translate(0 0)">
    <path id="Path_1" data-name="Path 1" d="M231.255,240.633a2.422,2.422,0,0,1,2.434-2.422l4.035.013a2.426,2.426,0,0,1,2.426,2.426v15.258c.454-.135,1.036-.278,1.676-.429a2.021,2.021,0,0,0,1.558-1.967V234.587a2.426,2.426,0,0,1,2.426-2.426h4.047a2.426,2.426,0,0,1,2.426,2.426v17.566s1.012-.41,2-.826a2.025,2.025,0,0,0,1.236-1.863v-20.94a2.426,2.426,0,0,1,2.425-2.426h4.043a2.426,2.426,0,0,1,2.423,2.426v17.244a47.413,47.413,0,0,0,9.876-9.269,4.072,4.072,0,0,0,.62-3.8,28.555,28.555,0,1,0-51.733,23.6,3.611,3.611,0,0,0,3.445,1.785c.765-.067,1.717-.162,2.849-.3a2.02,2.02,0,0,0,1.792-2.005V240.633" transform="translate(-219.377 -213.516)" fill="#12161c"/>
    <path id="Path_2" data-name="Path 2" d="M244.417,294.907a28.564,28.564,0,0,0,45.368-23.1c0-.659-.031-1.308-.074-1.955-10.437,15.566-29.708,22.843-45.294,25.059" transform="translate(-232.625 -243.32)" fill="#f0b90b"/>
  </g>
  <path id="Path_87" data-name="Path 87" d="M19.384-43.979a6.583,6.583,0,0,1,3.9,2.3,6.441,6.441,0,0,1,1.488,4.219,6.619,6.619,0,0,1-2.223,5.255q-2.223,1.94-6.442,1.94H5.52v-26.6h10.4a9.27,9.27,0,0,1,6.122,1.789,6.08,6.08,0,0,1,2.129,4.916A6.125,6.125,0,0,1,22.85-46.07a6.39,6.39,0,0,1-3.466,2.091ZM9.815-45.411h5.312a5.032,5.032,0,0,0,3.447-1.055A3.727,3.727,0,0,0,19.761-49.4a3.682,3.682,0,0,0-1.187-2.9,5.284,5.284,0,0,0-3.6-1.055H9.815Zm5.425,11.6a5.768,5.768,0,0,0,3.786-1.111,3.818,3.818,0,0,0,1.337-3.108,3.849,3.849,0,0,0-1.356-3.127,5.779,5.779,0,0,0-3.805-1.13H9.815v8.477ZM35.621-51.288a8.766,8.766,0,0,1,5.858,1.865,7.89,7.89,0,0,1,2.694,4.992H40.1a4.391,4.391,0,0,0-1.45-2.731A4.612,4.612,0,0,0,35.508-48.2,3.692,3.692,0,0,0,33-47.426a2.633,2.633,0,0,0-.885,2.091,2.072,2.072,0,0,0,.64,1.582,4.47,4.47,0,0,0,1.6.942,27.574,27.574,0,0,0,2.731.753,27.289,27.289,0,0,1,3.786,1.093,6.134,6.134,0,0,1,2.486,1.789A5,5,0,0,1,44.4-35.841a5.2,5.2,0,0,1-1.978,4.219A8.161,8.161,0,0,1,37.091-30a10.133,10.133,0,0,1-6.273-1.808,7.444,7.444,0,0,1-2.882-5.048h4.182a3.948,3.948,0,0,0,1.507,2.75,5.382,5.382,0,0,0,3.466,1.055,3.464,3.464,0,0,0,2.43-.81,2.662,2.662,0,0,0,.885-2.053,2.27,2.27,0,0,0-.678-1.733,4.7,4.7,0,0,0-1.7-1,23.551,23.551,0,0,0-2.788-.735,30.887,30.887,0,0,1-3.673-1.055,5.725,5.725,0,0,1-2.411-1.714,4.845,4.845,0,0,1-1-3.221,5.288,5.288,0,0,1,1.978-4.276A8.347,8.347,0,0,1,35.621-51.288Zm22.3,0a10.277,10.277,0,0,1,6.668,2.129,9.18,9.18,0,0,1,3.278,5.783H63.311a4.874,4.874,0,0,0-1.827-3.07,5.8,5.8,0,0,0-3.636-1.111A5.469,5.469,0,0,0,53.7-45.806a7.214,7.214,0,0,0-1.658,5.142A7.285,7.285,0,0,0,53.7-35.5a5.441,5.441,0,0,0,4.144,1.771,5.736,5.736,0,0,0,3.636-1.13,4.951,4.951,0,0,0,1.827-3.089H67.87a9.258,9.258,0,0,1-3.278,5.8A10.217,10.217,0,0,1,57.924-30a10.836,10.836,0,0,1-5.331-1.281,9.11,9.11,0,0,1-3.636-3.692,11.679,11.679,0,0,1-1.319-5.689,11.6,11.6,0,0,1,1.319-5.651,9.11,9.11,0,0,1,3.636-3.692,10.836,10.836,0,0,1,5.331-1.281ZM89.495-37.348a7.3,7.3,0,0,1-.942,3.636,6.848,6.848,0,0,1-2.863,2.694A9.965,9.965,0,0,1,80.98-30a11.78,11.78,0,0,1-4.86-.961,8.457,8.457,0,0,1-3.428-2.694,7.647,7.647,0,0,1-1.469-3.993h4.6a4.715,4.715,0,0,0,1.488,2.976,4.831,4.831,0,0,0,3.485,1.243,4.144,4.144,0,0,0,3.033-1.055A3.637,3.637,0,0,0,84.9-37.2a3.49,3.49,0,0,0-.791-2.355A5.547,5.547,0,0,0,82.148-41q-1.168-.527-3.2-1.206a27.911,27.911,0,0,1-4.05-1.582,7.365,7.365,0,0,1-2.656-2.3,6.587,6.587,0,0,1-1.093-3.956A6.748,6.748,0,0,1,72.2-53.812a6.857,6.857,0,0,1,3.014-2.505,10.878,10.878,0,0,1,4.521-.885A9.894,9.894,0,0,1,86.2-55.243a7.382,7.382,0,0,1,2.731,5.124H84.3A4.521,4.521,0,0,0,82.883-52.7a4.427,4.427,0,0,0-3.146-1.074,4.345,4.345,0,0,0-2.9.923A3.283,3.283,0,0,0,75.744-50.2a3.338,3.338,0,0,0,.753,2.242,5.237,5.237,0,0,0,1.9,1.394q1.149.509,3.146,1.187a27.638,27.638,0,0,1,4.125,1.6,7.474,7.474,0,0,1,2.712,2.355A6.815,6.815,0,0,1,89.495-37.348Zm13.525-13.939a10.277,10.277,0,0,1,6.668,2.129,9.18,9.18,0,0,1,3.278,5.783h-4.559a4.874,4.874,0,0,0-1.827-3.07,5.8,5.8,0,0,0-3.635-1.111A5.469,5.469,0,0,0,98.8-45.806a7.214,7.214,0,0,0-1.658,5.142A7.285,7.285,0,0,0,98.8-35.5a5.441,5.441,0,0,0,4.144,1.771,5.736,5.736,0,0,0,3.636-1.13,4.951,4.951,0,0,0,1.827-3.089h4.559a9.258,9.258,0,0,1-3.278,5.8A10.217,10.217,0,0,1,103.019-30a10.836,10.836,0,0,1-5.331-1.281,9.11,9.11,0,0,1-3.635-3.692,11.679,11.679,0,0,1-1.319-5.689,11.6,11.6,0,0,1,1.319-5.651,9.111,9.111,0,0,1,3.635-3.692A10.836,10.836,0,0,1,103.019-51.288Zm22.416,0a8.212,8.212,0,0,1,4.822,1.394,7.5,7.5,0,0,1,2.826,3.692v-4.822h4.295v20.758h-4.295v-4.822a7.5,7.5,0,0,1-2.826,3.692A8.212,8.212,0,0,1,125.435-30a9.2,9.2,0,0,1-4.841-1.281,8.754,8.754,0,0,1-3.334-3.692,12.579,12.579,0,0,1-1.206-5.689,12.489,12.489,0,0,1,1.206-5.651,8.754,8.754,0,0,1,3.334-3.692A9.2,9.2,0,0,1,125.435-51.288Zm1.319,3.767a5.981,5.981,0,0,0-4.577,1.827,7.059,7.059,0,0,0-1.714,5.029,7.059,7.059,0,0,0,1.714,5.029,5.981,5.981,0,0,0,4.577,1.827,6.237,6.237,0,0,0,3.24-.848,6.021,6.021,0,0,0,2.26-2.392,7.538,7.538,0,0,0,.829-3.617,7.567,7.567,0,0,0-.829-3.6,5.991,5.991,0,0,0-2.26-2.411A6.237,6.237,0,0,0,126.754-47.52Zm27.389-3.843a7.569,7.569,0,0,1,5.8,2.336q2.185,2.336,2.185,6.668v12.093h-4.295V-41.907a6.064,6.064,0,0,0-1.432-4.314,5.112,5.112,0,0,0-3.918-1.526,5.377,5.377,0,0,0-4.106,1.639,6.754,6.754,0,0,0-1.545,4.8v11.038h-4.295V-51.024h4.295v4.559a6.965,6.965,0,0,1,2.788-3.617A8.074,8.074,0,0,1,154.143-51.363Z" transform="translate(62.36 71.935)" fill="#12161c"/>
</svg>
