<svg id="logo8" xmlns="http://www.w3.org/2000/svg" width="331.756" height="57.053" viewBox="0 0 331.756 57.053">
  <path id="Path_16068" data-name="Path 16068" d="M69.071,304.01a3.03,3.03,0,0,1-3.041.221c-1.106-.663-1.769-2.156-1.769-4.2v-6.247c0-2.985-1.161-5.141-3.151-5.694-3.372-1-5.915,3.151-6.855,4.7l-5.971,9.564V290.576c-.055-2.709-.94-4.312-2.6-4.81-1.106-.332-2.764-.166-4.367,2.267L27.995,309.372a23.586,23.586,0,0,1-2.709-10.946,23,23,0,1,1,46,0v.111c.111,2.488-.663,4.478-2.211,5.473Zm7.3-5.584h0v-.111C76.313,282.67,63.708,269.9,48.284,269.9A28.327,28.327,0,0,0,20.2,298.426c0,15.7,12.6,28.526,28.084,28.526a27.6,27.6,0,0,0,19.073-7.629,2.583,2.583,0,0,0-3.483-3.815l-.055.055a22.718,22.718,0,0,1-32.728-1.493l12-19.239v8.9c0,4.257,1.659,5.639,3.041,6.026s3.483.111,5.749-3.483l6.579-10.67a6.117,6.117,0,0,1,.608-.885v5.418c0,3.98,1.6,7.187,4.367,8.735a8.033,8.033,0,0,0,8.237-.332C74.875,306.442,76.589,302.794,76.368,298.426Zm39.141-9.73a2.772,2.772,0,0,1,1.272,2.156,2.443,2.443,0,0,1-2.377,2.432,4.19,4.19,0,0,1-.885-.166,9.085,9.085,0,0,0-5.362-1.824c-4.7,0-7.906,3.815-7.906,8.569s3.262,8.514,7.906,8.514a8.587,8.587,0,0,0,5.971-2.432,2.419,2.419,0,0,1,1.382-.442,2.242,2.242,0,0,1,2.267,2.267,2.354,2.354,0,0,1-1.106,1.935,13.123,13.123,0,1,1-8.458-23.219A12.5,12.5,0,0,1,115.509,288.7Zm13.157,5.528a9.181,9.181,0,0,1,9.011,9.288c0,5.086-4.146,9.453-9.011,9.453a9.51,9.51,0,0,1-9.4-9.453A9.367,9.367,0,0,1,128.666,294.225Zm-.055,14.153c2.156,0,3.98-2.046,3.98-4.81s-1.824-4.533-3.98-4.533a4.23,4.23,0,0,0-4.257,4.533A4.545,4.545,0,0,0,128.611,308.377Zm12.162,1.714V297.044a2.549,2.549,0,0,1,2.543-2.6,2.584,2.584,0,0,1,2.543,2.6v13.047a2.584,2.584,0,0,1-2.543,2.6A2.621,2.621,0,0,1,140.773,310.091Zm-.387-20.565a2.975,2.975,0,0,1,2.93-3.041,3.02,3.02,0,0,1,2.985,3.041,2.958,2.958,0,1,1-5.915,0Zm15.2,13.489v7.076a2.544,2.544,0,1,1-5.086,0V296.436a1.963,1.963,0,1,1,3.925,0,7.377,7.377,0,0,1,5.584-2.211c5.086,0,7.353,3.815,7.353,8.182v7.684a2.544,2.544,0,1,1-5.086,0v-7.076c0-2.211-.276-4.091-3.483-4.091-2.267,0-3.206,1.88-3.206,4.091Zm28.25,2.709a1.648,1.648,0,0,1-1.327-.663l-5.915-6.413v11.444a2.544,2.544,0,1,1-5.086,0V287.425a1.077,1.077,0,0,1,.94-.663,1.78,1.78,0,0,1,1.106.663l9.453,10.614a1.234,1.234,0,0,0,.829.5,1.358,1.358,0,0,0,.829-.5l9.453-10.614a1.644,1.644,0,0,1,1.106-.663.964.964,0,0,1,.94.663v22.666a2.549,2.549,0,0,1-2.543,2.6,2.584,2.584,0,0,1-2.543-2.6V298.647l-5.915,6.413a2.04,2.04,0,0,1-1.327.663Zm24.435,2.654c2.267,0,4.2-2.046,4.2-4.81a4.334,4.334,0,0,0-4.2-4.589c-2.211,0-4.036,1.88-4.036,4.589C204.238,306.221,206.007,308.377,208.274,308.377Zm5.418,2.322-.111-.608c-1,1.935-4.146,2.819-6.136,2.819-4.754,0-8.292-4.312-8.292-9.453,0-5.086,3.593-9.288,8.569-9.288a7.954,7.954,0,0,1,5.915,2.819l.111-.608a1.936,1.936,0,0,1,1.935-1.99,2.018,2.018,0,0,1,1.99,1.99v14.263a1.982,1.982,0,0,1-1.99,1.99,1.9,1.9,0,0,1-1.99-1.935Zm17.967-11.775h-.553c-3.206.166-3.815,1.99-3.815,4.091v7.076a2.544,2.544,0,1,1-5.086,0V296.436a1.963,1.963,0,1,1,3.925,0,7.051,7.051,0,0,1,4.976-2.211h.5a2.384,2.384,0,0,1,2.322,2.377,2.325,2.325,0,0,1-2.267,2.322Zm19.626,9.951a2.43,2.43,0,0,1,.387,1.216,2.65,2.65,0,0,1-2.543,2.543,3.139,3.139,0,0,1-2.267-1.437L241,304.4v5.639a2.544,2.544,0,1,1-5.086,0V289.3a2.544,2.544,0,1,1,5.086,0v12.936l5.86-6.468a3.326,3.326,0,0,1,2.211-1.382,2.541,2.541,0,0,1,2.432,2.488,2.176,2.176,0,0,1-.332,1.161l-4.644,5.086,4.754,5.749Zm9.951-9.9c-1.382,0-3.649.719-3.649,2.875h7.353c-.055-2.156-2.377-2.875-3.7-2.875Zm6.634,6.136H257.587c0,3.041,2.93,3.538,4.2,3.538a8.252,8.252,0,0,0,3.317-.663,2.5,2.5,0,0,1,1.327-.387,2.089,2.089,0,0,1,2.045,2.1,2.24,2.24,0,0,1-1.106,1.824,9.136,9.136,0,0,1-5.528,1.437c-5.141,0-9.4-2.764-9.4-9.232,0-5.086,2.6-9.509,8.679-9.509,4.92,0,8.624,3.206,8.735,8.9a2.018,2.018,0,0,1-1.99,1.99Zm14.153,7.795H280.64c-3.87,0-6.136-1.714-6.136-7.74v-6.247h-1.327a2.351,2.351,0,0,1,0-4.7H274.5v-4.81a2.549,2.549,0,0,1,2.543-2.6,2.584,2.584,0,0,1,2.543,2.6v4.81h2.1a2.338,2.338,0,0,1,2.267,2.377,2.4,2.4,0,0,1-2.267,2.322h-2.1v5.252c0,3.483.166,4.2,1.714,4.2h.719a2.277,2.277,0,0,1,2.267,2.267,2.314,2.314,0,0,1-2.267,2.267Zm24.6-24.214a2.772,2.772,0,0,1,1.271,2.156,2.443,2.443,0,0,1-2.377,2.432,4.19,4.19,0,0,1-.885-.166,9.085,9.085,0,0,0-5.362-1.824c-4.7,0-7.906,3.815-7.906,8.569s3.262,8.514,7.906,8.514a8.586,8.586,0,0,0,5.971-2.432,2.419,2.419,0,0,1,1.382-.442,2.242,2.242,0,0,1,2.267,2.267,2.354,2.354,0,0,1-1.106,1.935,13.123,13.123,0,1,1-8.458-23.219,12.375,12.375,0,0,1,7.3,2.211ZM319.5,308.377c2.267,0,4.2-2.046,4.2-4.81a4.334,4.334,0,0,0-4.2-4.589c-2.267,0-4.036,1.88-4.036,4.589,0,2.654,1.824,4.81,4.036,4.81Zm5.418,2.322-.111-.608c-1,1.935-4.146,2.819-6.136,2.819-4.754,0-8.293-4.312-8.293-9.453,0-5.086,3.593-9.288,8.569-9.288a7.954,7.954,0,0,1,5.915,2.819l.111-.608a1.936,1.936,0,0,1,1.935-1.99,2.018,2.018,0,0,1,1.99,1.99v14.263a1.982,1.982,0,0,1-1.99,1.99A1.9,1.9,0,0,1,324.922,310.7Zm17.857-2.322c2.267,0,4.036-2.156,4.036-4.81,0-2.764-1.824-4.589-4.036-4.589a4.3,4.3,0,0,0-4.2,4.589C338.577,306.332,340.512,308.377,342.779,308.377Zm-4.2,3.041v6.468a2.544,2.544,0,1,1-5.086,0v-21.45a1.982,1.982,0,0,1,1.99-1.99,2.033,2.033,0,0,1,1.935,2.211,8.176,8.176,0,0,1,5.971-2.432c4.92,0,8.569,4.146,8.569,9.288,0,5.086-3.483,9.453-8.293,9.453a9.751,9.751,0,0,1-5.086-1.548Z" transform="translate(-20.2 -269.9)" fill="#17181b"/>
</svg>
