<svg xmlns="http://www.w3.org/2000/svg" xmlns:xlink="http://www.w3.org/1999/xlink" width="37" height="37" viewBox="0 0 37 37">
  <defs>
    <linearGradient id="linear-gradient" x1="0.392" x2="0.837" y2="1.17" gradientUnits="objectBoundingBox">
      <stop offset="0" stop-color="#990076"/>
      <stop offset="1" stop-color="#4d003b"/>
    </linearGradient>
  </defs>
  <g id="social1" transform="translate(0 -0.173)">
    <rect id="Retângulo_16" data-name="Retângulo 16" width="37" height="37" rx="18.5" transform="translate(0 0.173)" fill="url(#linear-gradient)"/>
    <path id="Caminho_140" data-name="Caminho 140" d="M2.846 6.887c.03-.295-.083-.586-.303-.784l-2.24-2.7v-.403h6.958l5.378 11.795 4.728-11.795h6.633v.403l-1.916 1.837c-.165.126-.247.333-.213.538v13.498c-.034.204.048.411.213.537l1.871 1.837v.403h-9.412v-.403l1.939-1.882c.19-.19.19-.246.19-.537v-10.91l-5.389 13.688h-.728l-6.275-13.688v9.174c-.052.385.076.774.347 1.052l2.521 3.058v.404h-7.148v-.404l2.521-3.058c.27-.279.39-.67.325-1.052v-10.608z" transform="translate(6.636 6.525)" fill="#fff"/>
  </g>
</svg>
