<svg xmlns="http://www.w3.org/2000/svg" xmlns:xlink="http://www.w3.org/1999/xlink" width="37" height="37" viewBox="0 0 37 37">
  <defs>
    <linearGradient id="linear-gradient" x1="0.392" x2="0.837" y2="1.17" gradientUnits="objectBoundingBox">
      <stop offset="0" stop-color="#990076"/>
      <stop offset="1" stop-color="#4d003b"/>
    </linearGradient>
  </defs>
  <g id="social3" transform="translate(0.119 -0.173)">
    <rect id="Retângulo_319" data-name="Retângulo 319" width="37" height="37" rx="18.5" transform="translate(-0.119 0.173)" fill="url(#linear-gradient)"/>
    <path id="Subtração_31" data-name="Subtração 31" d="M15.216,15.842c-.367,0-1-.442-2.849-1.808-1.163-.857-2.151-1.57-2.2-1.589h-.006A7.126,7.126,0,0,0,8.9,13.526c-1.231,1.178-1.26,1.2-1.564,1.286a.563.563,0,0,1-.128.028.043.043,0,0,1-.035-.013c-.022-.024-.017-.088,0-.21s.067-.89.13-1.856c.059-.91.121-1.768.141-1.96l.031-.352,4.1-3.7c3.435-3.1,4.1-3.727,4.062-3.921-.009-.042-.051-.06-.1-.075a.231.231,0,0,0-.073-.012c-.241,0-.847.374-5.509,3.311l-5,3.144L3.223,8.656c-1-.313-2.01-.628-2.291-.714C.313,7.751.009,7.548,0,7.323c-.011-.289.468-.617,1.462-1.006.506-.2,4.153-1.608,8.672-3.353l.748-.289C16.339.563,17.806,0,18.31,0a.385.385,0,0,1,.326.155L18.67.19a.683.683,0,0,0,.095.08c.309.257.309.257-.936,6.129L17.6,7.493l-.153.723c-1.474,6.966-1.527,7.175-1.859,7.454a.553.553,0,0,1-.368.171Z" transform="translate(7.768 10.648)" fill="#fff"/>
  </g>
</svg>
