<svg xmlns="http://www.w3.org/2000/svg" width="119.193" height="119.191" viewBox="0 0 119.193 119.191">
  <g id="sp-logo" transform="translate(-900.043 -10494)">
    <path id="woman-s-face-38289" d="M59.6,0A59.6,59.6,0,1,1,0,59.6,59.6,59.6,0,0,1,59.6,0Z" transform="translate(900.043 10494)" fill="#fff"/>
    <path id="path0" d="M148.653,13.31c-24.64,1.595-40.966,26.667-32.5,49.919l.557,1.532h26.877l1.064-.268c4.192-1.056,6.2-3.8,6.2-8.468,0-4.8-2.125-7.567-6.581-8.58-.35-.08-2.549-.156-5.738-.2l-5.171-.071-.467-.31a2.333,2.333,0,0,1-.342-3.684c.753-.736.54-.714,7.251-.714h6.126l3.766-3.023c2.071-1.663,3.843-3.095,3.936-3.181.276-.256-20.508-.157-21.574.1-4.406,1.076-6.771,4.335-6.528,8.994a8.216,8.216,0,0,0,6.828,8.011c.343.077,2.595.156,5.693.2,4.967.07,5.136.08,5.446.31a2.7,2.7,0,0,1-.236,4.446c-.574.311-21.327.372-21.492.064-.453-.847-1.042-5.271-1.042-7.827a30.263,30.263,0,0,1,43.626-27.392c18.661,9.139,22.72,34.087,7.949,48.858a30.117,30.117,0,0,1-46.367-4.46l-.794-1.163h-3.8c-2.087,0-3.8.027-3.8.059a31.857,31.857,0,0,0,2.643,4.706A37.117,37.117,0,1,0,148.653,13.31m4.883,25.957-3.89,3.142,9.45.057c10.486.063,9.792.008,10.474.818a2.317,2.317,0,0,1-.038,3.191c-.667.7-.6.693-5.241.768-5.425.088-6.679.377-8.677,2-2.383,1.932-2.7,3.114-2.756,10.217l-.041,5.361h6.368l0-4.68c0-6.936-.381-6.5,5.784-6.584,4.566-.063,5.138-.137,6.76-.872,6.764-3.067,6.261-13.658-.759-15.975-1.653-.546-2.351-.6-8.193-.587l-5.353.007-3.89,3.141" transform="translate(808.694 10503.241)" fill="#990076" fill-rule="evenodd"/>
  </g>
</svg>
